<svg id="Graphic_Elements" data-name="Graphic Elements" xmlns="http://www.w3.org/2000/svg" viewBox="0 0 820.4 1100"><path d="M189.64,600.29c17.13,0,34.25.08,51.37,0,20.87-.13,41.74.51,62.6-.2,12-.41,24-.2,36-.73,13.47-.6,27-.92,40.41-1.89,24-1.74,47.88-4.15,71.36-9.61a201.62,201.62,0,0,0,43.91-15.29c25-12.36,43.87-31,57.57-55.15,11.18-19.7,18.29-40.93,23.73-62.79a549.3,549.3,0,0,0,11.11-61.2q3.21-24.43,5.14-49c.91-11.52,1.76-23,2.37-34.6.78-14.82,1.54-29.65,2.1-44.48.5-13.37.88-26.74,1.34-40.1.38-11,.21-22,.7-33,.66-14.85.22-29.7.63-44.55.85-31.18.39-62.36.68-93.54,0-1.08-.29-2.25.65-3.48.85,1.19.59,2.44.6,3.58,0,8.85,0,17.69,0,26.54.07,21.32-.12,42.64.29,64,.31,15.53.14,31.07.69,46.59.35,10.09.3,20.18.6,30.26q.63,21.58,1.38,43.16c.36,9.74.73,19.48,1.34,29.21,1,15.6,1.83,31.22,3.09,46.81,1.35,16.6,2.88,33.19,5,49.71,4.11,32,9.63,63.67,20.47,94.2,6.3,17.72,14.42,34.5,25.85,49.56,14,18.5,31.9,32,53,41.41,18.7,8.29,38.39,13,58.48,16.3,14.66,2.38,29.41,4,44.24,5,13.79.95,27.6,1.59,41.41,2.12,10.66.41,21.32.28,32,.63,39.11,1.29,78.23.22,117.35.66H1010c-.77.9-1.64.53-2.38.53q-42.18,0-84.37,0c-11.22,0-22.46-.14-33.67.31-10.2.41-20.41.2-30.6.67-16,.74-31.94,1.23-47.86,2.63-22.94,2-45.77,4.83-68.09,10.78-18.41,4.91-35.93,11.89-51.82,22.6-16.76,11.3-29.91,25.94-40.14,43.28-11.81,20-19.26,41.74-24.92,64.14A537.67,537.67,0,0,0,615,805.82q-2.76,20.56-4.55,41.22Q609.09,863,608,878.9c-.93,14-1.53,28.06-2.4,42.09-.41,6.67-.59,13.36-.78,20-.61,21.08-1.22,42.15-1.67,63.23-.28,12.93-.22,25.85-.56,38.77-.9,34.58-.51,69.16-.69,103.74,0,1.2.26,2.47-.62,3.9-.91-1.41-.63-2.77-.63-4q-.12-19.9-.15-39.8c0-14.18.19-28.36-.22-42.53-.46-16.32-.1-32.65-.66-49-.36-10.54-.32-21.08-.61-31.62-.4-14.27-.79-28.55-1.35-42.82-.57-14.61-1.19-29.22-2.05-43.81-1-17.3-2.22-34.59-3.81-51.86-2-22-4.58-44-8.37-65.75C579,754,573.13,728.84,563.16,704.82a167.29,167.29,0,0,0-24-41.31,129.2,129.2,0,0,0-40.2-33c-17.76-9.51-36.84-15.18-56.5-19.11A418.34,418.34,0,0,0,396.31,605c-16-1.38-32.09-2.27-48.18-2.85-9.3-.33-18.59-.23-27.88-.63-27.88-1.21-55.78-.32-83.67-.57-15.64-.14-31.29,0-46.94,0Z" transform="translate(-189.64 -50.67)" style="fill:#333"/></svg>